<svg width="19" height="19" viewBox="0 0 30 30" fill="#fff" xmlns="http://www.w3.org/2000/svg">
  <path fill-rule="evenodd" clip-rule="evenodd"
    d="M23.75 24.375C23.75 25.4112 22.91 26.25 21.875 26.25C20.84 26.25 20 25.4112 20 24.375C20 23.3388 20.84 22.5 21.875 22.5C22.91 22.5 23.75 23.3388 23.75 24.375ZM11.25 24.375C11.25 25.4112 10.41 26.25 9.375 26.25C8.34 26.25 7.5 25.4112 7.5 24.375C7.5 23.3388 8.34 22.5 9.375 22.5C10.41 22.5 11.25 23.3388 11.25 24.375ZM20.4775 17.5H10.955L8.90875 10H24.2275L20.4775 17.5ZM26.3538 8.685C25.895 7.9425 25.1 7.5 24.2275 7.5H8.2275L7.45625 4.67125C7.3075 4.1275 6.81375 3.75 6.25 3.75H3.75C3.05875 3.75 2.5 4.31 2.5 5C2.5 5.69 3.05875 6.25 3.75 6.25H5.295L8.79375 19.0787C8.9425 19.6225 9.43625 20 10 20H21.25C21.7237 20 22.1562 19.7325 22.3688 19.3087L26.4637 11.1175C26.8538 10.3363 26.8125 9.4275 26.3538 8.685Z"
    fill="#fff" />
</svg>
