<svg width="19" height="19" viewBox="0 0 30 30" fill="#fff" xmlns="http://www.w3.org/2000/svg">
  <path fill-rule="evenodd" clip-rule="evenodd"
    d="M15 5C14.3125 5 13.75 5.5625 13.75 6.25V25C13.75 25.6875 14.3125 26.25 15 26.25C15.6875 26.25 16.25 25.6875 16.25 25V6.25C16.25 5.5625 15.6875 5 15 5ZM23.75 15C23.0625 15 22.5 15.5625 22.5 16.25V25C22.5 25.6875 23.0625 26.25 23.75 26.25C24.4375 26.25 25 25.6875 25 25V16.25C25 15.5625 24.4375 15 23.75 15ZM5 11.25C5 10.5625 5.5625 10 6.25 10C6.9375 10 7.5 10.5625 7.5 11.25V25C7.5 25.6875 6.9375 26.25 6.25 26.25C5.5625 26.25 5 25.6875 5 25V11.25Z"
    fill="#fff" />
</svg>
