<svg width="37" height="27" viewBox="0 0 37 27" fill="none" xmlns="http://www.w3.org/2000/svg">
<path d="M26.9091 11.8125H28.5909C29.037 11.8125 29.4647 11.6347 29.7801 11.3182C30.0955 11.0018 30.2727 10.5726 30.2727 10.125V8.4375C30.2727 7.98995 30.0955 7.56073 29.7801 7.24426C29.4647 6.92779 29.037 6.75 28.5909 6.75H26.9091C26.463 6.75 26.0353 6.92779 25.7199 7.24426C25.4045 7.56073 25.2273 7.98995 25.2273 8.4375V10.125C25.2273 10.5726 25.4045 11.0018 25.7199 11.3182C26.0353 11.6347 26.463 11.8125 26.9091 11.8125ZM8.40909 13.5H16.8182C17.2642 13.5 17.692 13.3222 18.0074 13.0057C18.3228 12.6893 18.5 12.2601 18.5 11.8125C18.5 11.3649 18.3228 10.9357 18.0074 10.6193C17.692 10.3028 17.2642 10.125 16.8182 10.125H8.40909C7.96304 10.125 7.53527 10.3028 7.21987 10.6193C6.90446 10.9357 6.72727 11.3649 6.72727 11.8125C6.72727 12.2601 6.90446 12.6893 7.21987 13.0057C7.53527 13.3222 7.96304 13.5 8.40909 13.5ZM35.3182 0H1.68182C1.23577 0 0.807995 0.17779 0.492593 0.494258C0.177191 0.810725 0 1.23995 0 1.6875V25.3125C0 25.7601 0.177191 26.1893 0.492593 26.5057C0.807995 26.8222 1.23577 27 1.68182 27H35.3182C35.7642 27 36.192 26.8222 36.5074 26.5057C36.8228 26.1893 37 25.7601 37 25.3125V1.6875C37 1.23995 36.8228 0.810725 36.5074 0.494258C36.192 0.17779 35.7642 0 35.3182 0V0ZM33.6364 23.625H3.36364V3.375H33.6364V23.625ZM8.40909 20.25H16.8182C17.2642 20.25 17.692 20.0722 18.0074 19.7557C18.3228 19.4393 18.5 19.0101 18.5 18.5625C18.5 18.1149 18.3228 17.6857 18.0074 17.3693C17.692 17.0528 17.2642 16.875 16.8182 16.875H8.40909C7.96304 16.875 7.53527 17.0528 7.21987 17.3693C6.90446 17.6857 6.72727 18.1149 6.72727 18.5625C6.72727 19.0101 6.90446 19.4393 7.21987 19.7557C7.53527 20.0722 7.96304 20.25 8.40909 20.25Z" fill="black" fill-opacity="0.8"/>
</svg>
