<svg width="19" height="19" viewBox="0 0 30 30" fill="#fff" xmlns="http://www.w3.org/2000/svg">
  <path fill-rule="evenodd" clip-rule="evenodd"
    d="M20.0002 24.9847H23.7377L23.7502 14.5147L14.9977 5.52475L6.25774 14.4635L6.25024 24.9847H10.0002V16.2347C10.0002 15.5435 10.559 14.9847 11.2502 14.9847H18.7502C19.4402 14.9847 20.0002 15.5435 20.0002 16.2347V24.9847ZM17.5002 24.9847H12.5002V17.4847H17.5002V24.9847ZM25.5302 12.716L15.894 2.861C15.4227 2.37975 14.5777 2.37975 14.1065 2.861L4.46899 12.7172C4.01274 13.186 3.75024 13.841 3.75024 14.5147V24.9847C3.75024 26.3635 4.80899 27.4847 6.11024 27.4847H11.2502H18.7502H23.889C25.1902 27.4847 26.2502 26.3635 26.2502 24.9847V14.5147C26.2502 13.841 25.9877 13.186 25.5302 12.716Z"
    fill="#fff" />
</svg>
