<svg width="22" height="22" viewBox="0 0 33 33" fill="#fff" xmlns="http://www.w3.org/2000/svg">
  <path fill-rule="evenodd" clip-rule="evenodd"
    d="M10.2313 6.76231C9.54378 7.24906 8.91266 7.81281 8.34066 8.45081C4.42328 12.8109 4.55116 19.7877 8.62528 24.0021C10.7785 26.2309 13.6715 27.4739 16.7708 27.5001C16.8052 27.5014 16.8409 27.5014 16.8767 27.5014C19.936 27.5014 22.8084 26.3148 24.9754 24.1519C25.4264 23.7023 25.8362 23.2197 26.2033 22.7054C21.8775 23.2444 17.4432 21.7952 14.293 18.6519C11.1443 15.5087 9.68678 11.0839 10.2313 6.76231ZM16.8767 30.2514C16.8327 30.2514 16.79 30.2514 16.746 30.2501C12.9043 30.2171 9.31691 28.6771 6.64803 25.9147C1.59216 20.6828 1.43403 12.0244 6.29328 6.61381C7.80716 4.92668 9.65516 3.65756 11.785 2.84218C12.2869 2.64693 12.8575 2.76793 13.2412 3.14743C13.6248 3.52556 13.7527 4.09343 13.567 4.59943C12.0298 8.80006 13.0775 13.5521 16.2359 16.7049C19.3957 19.8578 24.16 20.9042 28.3744 19.3697C28.8804 19.1827 29.4497 19.3147 29.8264 19.6969C30.2032 20.0833 30.3228 20.6526 30.1289 21.1544C29.4084 23.0286 28.3277 24.6923 26.9169 26.0989C24.2315 28.7802 20.6703 30.2514 16.8767 30.2514Z"
    fill="#fff" />
</svg>
