<svg width="24" height="24" viewBox="0 0 24 24" fill="none" xmlns="http://www.w3.org/2000/svg">
<path d="M3.6 19.2014H8.688C8.84593 19.2023 9.00248 19.172 9.14869 19.1123C9.29489 19.0526 9.42787 18.9647 9.54 18.8535L17.844 10.5399L21.252 7.20487C21.3645 7.09335 21.4537 6.96066 21.5147 6.81447C21.5756 6.66829 21.607 6.51148 21.607 6.35312C21.607 6.19475 21.5756 6.03795 21.5147 5.89176C21.4537 5.74557 21.3645 5.61289 21.252 5.50136L16.164 0.354855C16.0524 0.242414 15.9197 0.153166 15.7735 0.0922616C15.6273 0.0313568 15.4704 0 15.312 0C15.1536 0 14.9967 0.0313568 14.8505 0.0922616C14.7043 0.153166 14.5716 0.242414 14.46 0.354855L11.076 3.74987L2.748 12.0635C2.63678 12.1756 2.54879 12.3085 2.48907 12.4547C2.42936 12.6008 2.39909 12.7573 2.4 12.9152V18.0017C2.4 18.3199 2.52643 18.625 2.75147 18.85C2.97652 19.075 3.28174 19.2014 3.6 19.2014ZM15.312 2.89812L18.708 6.29313L17.004 7.99664L13.608 4.60162L15.312 2.89812ZM4.8 13.4071L11.916 6.29313L15.312 9.68815L8.196 16.8021H4.8V13.4071ZM22.8 21.6007H1.2C0.88174 21.6007 0.576515 21.7271 0.351472 21.9521C0.126428 22.177 0 22.4822 0 22.8003C0 23.1185 0.126428 23.4237 0.351472 23.6486C0.576515 23.8736 0.88174 24 1.2 24H22.8C23.1183 24 23.4235 23.8736 23.6485 23.6486C23.8736 23.4237 24 23.1185 24 22.8003C24 22.4822 23.8736 22.177 23.6485 21.9521C23.4235 21.7271 23.1183 21.6007 22.8 21.6007Z" fill="black" fill-opacity="0.8"/>
</svg>
