<svg width="19" height="19" viewBox="0 0 30 30" fill="#fff" xmlns="http://www.w3.org/2000/svg">
  <path fill-rule="evenodd" clip-rule="evenodd"
    d="M9.36883 11.8956C6.82883 14.6444 6.88258 19.0019 9.53008 21.7006C10.8226 23.0219 12.5401 23.7506 14.3701 23.7519H14.3763C16.2101 23.7519 17.9338 23.0231 19.2326 21.7006C21.9276 18.9531 21.9226 14.4844 19.2213 11.7406L15.4888 7.9269C15.1113 11.0294 13.9476 13.7519 11.8751 13.7519C11.2401 13.7519 10.2051 13.4694 9.36883 11.8956ZM14.3763 26.2519H14.3676C11.8601 26.2494 9.50758 25.2556 7.74383 23.4494C4.10133 19.7369 4.09633 13.6956 7.73258 9.9894L8.96133 8.7469C9.27883 8.4294 9.74008 8.3069 10.1763 8.42065C10.6101 8.53815 10.9476 8.8794 11.0601 9.3144C11.3476 10.4256 11.6901 10.9719 11.8788 11.1794C12.3226 10.7119 13.1251 8.82315 13.1251 5.6269C13.1251 5.44315 13.1251 5.2694 13.1151 5.09565C13.0913 4.7269 13.2326 4.36565 13.5001 4.11065C13.9963 3.6394 14.7913 3.6394 15.2676 4.1294L21.0051 9.99065C24.6551 13.6956 24.6613 19.7369 21.0176 23.4506C19.2438 25.2581 16.8863 26.2519 14.3763 26.2519Z"
    fill="#fff"/>
</svg>
