<svg width="20" height="24" viewBox="0 0 20 24" fill="none" xmlns="http://www.w3.org/2000/svg">
  <path
    d="M10 13.2C9.61944 13.1957 9.24664 13.3035 8.9318 13.5088C8.61696 13.714 8.37518 14.007 8.23902 14.3482C8.10285 14.6893 8.07883 15.0624 8.17019 15.4171C8.26154 15.7718 8.46389 16.0911 8.75 16.332V18C8.75 18.3183 8.8817 18.6235 9.11612 18.8485C9.35054 19.0736 9.66848 19.2 10 19.2C10.3315 19.2 10.6495 19.0736 10.8839 18.8485C11.1183 18.6235 11.25 18.3183 11.25 18V16.332C11.5361 16.0911 11.7385 15.7718 11.8298 15.4171C11.9212 15.0624 11.8972 14.6893 11.761 14.3482C11.6248 14.007 11.383 13.714 11.0682 13.5088C10.7534 13.3035 10.3806 13.1957 10 13.2ZM16.25 8.4V6C16.25 4.4087 15.5915 2.88258 14.4194 1.75736C13.2473 0.632141 11.6576 0 10 0C8.3424 0 6.75269 0.632141 5.58058 1.75736C4.40848 2.88258 3.75 4.4087 3.75 6V8.4C2.75544 8.4 1.80161 8.77928 1.09835 9.45442C0.395088 10.1295 0 11.0452 0 12V20.4C0 21.3548 0.395088 22.2705 1.09835 22.9456C1.80161 23.6207 2.75544 24 3.75 24H16.25C17.2446 24 18.1984 23.6207 18.9017 22.9456C19.6049 22.2705 20 21.3548 20 20.4V12C20 11.0452 19.6049 10.1295 18.9017 9.45442C18.1984 8.77928 17.2446 8.4 16.25 8.4ZM6.25 6C6.25 5.04522 6.64509 4.12955 7.34835 3.45442C8.05161 2.77928 9.00544 2.4 10 2.4C10.9946 2.4 11.9484 2.77928 12.6517 3.45442C13.3549 4.12955 13.75 5.04522 13.75 6V8.4H6.25V6ZM17.5 20.4C17.5 20.7183 17.3683 21.0235 17.1339 21.2485C16.8995 21.4736 16.5815 21.6 16.25 21.6H3.75C3.41848 21.6 3.10054 21.4736 2.86612 21.2485C2.6317 21.0235 2.5 20.7183 2.5 20.4V12C2.5 11.6817 2.6317 11.3765 2.86612 11.1515C3.10054 10.9264 3.41848 10.8 3.75 10.8H16.25C16.5815 10.8 16.8995 10.9264 17.1339 11.1515C17.3683 11.3765 17.5 11.6817 17.5 12V20.4Z"
    fill="black" fill-opacity="0.8" />
</svg>
