<svg width="20" height="20" viewBox="0 0 20 20" fill="none" xmlns="http://www.w3.org/2000/svg">
  <path
    d="M7.00001 10.0001H5.00001C4.73479 10.0001 4.48044 10.1054 4.2929 10.293C4.10537 10.4805 4.00001 10.7349 4.00001 11.0001C4.00001 11.2653 4.10537 11.5196 4.2929 11.7072C4.48044 11.8947 4.73479 12.0001 5.00001 12.0001H7.00001C7.26522 12.0001 7.51958 11.8947 7.70711 11.7072C7.89465 11.5196 8.00001 11.2653 8.00001 11.0001C8.00001 10.7349 7.89465 10.4805 7.70711 10.293C7.51958 10.1054 7.26522 10.0001 7.00001 10.0001ZM6.00001 8.00007H10C10.2652 8.00007 10.5196 7.89471 10.7071 7.70717C10.8947 7.51964 11 7.26528 11 7.00007C11 6.73485 10.8947 6.4805 10.7071 6.29296C10.5196 6.10543 10.2652 6.00007 10 6.00007H6.00001C5.73479 6.00007 5.48044 6.10543 5.2929 6.29296C5.10537 6.4805 5.00001 6.73485 5.00001 7.00007C5.00001 7.26528 5.10537 7.51964 5.2929 7.70717C5.48044 7.89471 5.73479 8.00007 6.00001 8.00007ZM7.00001 14.0001H5.00001C4.73479 14.0001 4.48044 14.1054 4.2929 14.293C4.10537 14.4805 4.00001 14.7349 4.00001 15.0001C4.00001 15.2653 4.10537 15.5196 4.2929 15.7072C4.48044 15.8947 4.73479 16.0001 5.00001 16.0001H7.00001C7.26522 16.0001 7.51958 15.8947 7.70711 15.7072C7.89465 15.5196 8.00001 15.2653 8.00001 15.0001C8.00001 14.7349 7.89465 14.4805 7.70711 14.293C7.51958 14.1054 7.26522 14.0001 7.00001 14.0001ZM19 10.0001H16V1.00007C16.0007 0.823858 15.9548 0.650592 15.867 0.497814C15.7792 0.345037 15.6526 0.218173 15.5 0.130068C15.348 0.0423001 15.1755 -0.00390625 15 -0.00390625C14.8245 -0.00390625 14.652 0.0423001 14.5 0.130068L11.5 1.85007L8.50001 0.130068C8.34799 0.0423001 8.17554 -0.00390625 8.00001 -0.00390625C7.82447 -0.00390625 7.65203 0.0423001 7.50001 0.130068L4.50001 1.85007L1.50001 0.130068C1.34799 0.0423001 1.17554 -0.00390625 1.00001 -0.00390625C0.824471 -0.00390625 0.652027 0.0423001 0.500008 0.130068C0.347404 0.218173 0.220789 0.345037 0.132986 0.497814C0.0451828 0.650592 -0.000691685 0.823858 7.88288e-06 1.00007V17.0001C7.88288e-06 17.7957 0.316078 18.5588 0.878688 19.1214C1.4413 19.684 2.20436 20.0001 3.00001 20.0001H17C17.7957 20.0001 18.5587 19.684 19.1213 19.1214C19.6839 18.5588 20 17.7957 20 17.0001V11.0001C20 10.7349 19.8947 10.4805 19.7071 10.293C19.5196 10.1054 19.2652 10.0001 19 10.0001ZM3.00001 18.0001C2.73479 18.0001 2.48044 17.8947 2.2929 17.7072C2.10536 17.5196 2.00001 17.2653 2.00001 17.0001V2.73007L4.00001 3.87007C4.15435 3.95068 4.32589 3.99278 4.50001 3.99278C4.67413 3.99278 4.84567 3.95068 5.00001 3.87007L8.00001 2.15007L11 3.87007C11.1543 3.95068 11.3259 3.99278 11.5 3.99278C11.6741 3.99278 11.8457 3.95068 12 3.87007L14 2.73007V17.0001C14.0027 17.3412 14.0636 17.6794 14.18 18.0001H3.00001ZM18 17.0001C18 17.2653 17.8947 17.5196 17.7071 17.7072C17.5196 17.8947 17.2652 18.0001 17 18.0001C16.7348 18.0001 16.4804 17.8947 16.2929 17.7072C16.1054 17.5196 16 17.2653 16 17.0001V12.0001H18V17.0001ZM11.56 14.1701C11.5043 14.1322 11.4437 14.102 11.38 14.0801C11.3205 14.0496 11.2562 14.0293 11.19 14.0201C11.0294 13.9879 10.8633 13.9957 10.7063 14.0428C10.5494 14.0899 10.4064 14.1748 10.29 14.2901C10.1073 14.4817 10.0037 14.7353 10 15.0001C9.99841 15.1301 10.0222 15.2592 10.07 15.3801C10.1244 15.5016 10.1987 15.6131 10.29 15.7101C10.3872 15.7984 10.4988 15.8694 10.62 15.9201C10.7397 15.973 10.8691 16.0003 11 16.0003C11.1309 16.0003 11.2603 15.973 11.38 15.9201C11.5012 15.8694 11.6128 15.7984 11.71 15.7101C11.8027 15.6166 11.876 15.5058 11.9258 15.384C11.9755 15.2621 12.0008 15.1317 12 15.0001C11.9963 14.7353 11.8927 14.4817 11.71 14.2901C11.6625 14.2471 11.6124 14.207 11.56 14.1701ZM11.7 10.2901C11.5832 10.1764 11.4404 10.0929 11.2841 10.047C11.1277 10.0011 10.9624 9.99407 10.8027 10.0266C10.643 10.0591 10.4937 10.1302 10.3677 10.2337C10.2418 10.3371 10.143 10.4697 10.08 10.6201C10.0178 10.7716 9.99369 10.936 10.0099 11.099C10.0261 11.262 10.0821 11.4185 10.1729 11.5548C10.2638 11.6911 10.3867 11.8029 10.5309 11.8806C10.6751 11.9582 10.8362 11.9993 11 12.0001C11.2652 12.0001 11.5196 11.8947 11.7071 11.7072C11.8947 11.5196 12 11.2653 12 11.0001C11.9984 10.8694 11.9712 10.7403 11.92 10.6201C11.8718 10.4952 11.7967 10.3826 11.7 10.2901Z"
    fill="black" />
</svg>
  