<svg width="28" height="28" viewBox="0 0 28 28" fill="none" xmlns="http://www.w3.org/2000/svg">
<path d="M24.5295 15.4446C24.2204 15.4446 23.8972 15.3459 23.5881 15.2755C22.9621 15.1371 22.347 14.9535 21.7475 14.7259C21.0957 14.4881 20.3792 14.5005 19.7359 14.7606C19.0926 15.0207 18.568 15.5103 18.263 16.1351L17.9539 16.7692C16.5854 16.0057 15.3278 15.0574 14.2165 13.9509C13.1132 12.8363 12.1677 11.5751 11.4064 10.2026L11.9965 9.80804C12.6195 9.50214 13.1076 8.97599 13.367 8.33083C13.6264 7.68567 13.6387 6.9671 13.4015 6.31338C13.1785 5.71086 12.9954 5.09419 12.8536 4.46741C12.7833 4.1574 12.7271 3.8333 12.685 3.5092C12.5144 2.51663 11.996 1.61777 11.2232 0.974498C10.4504 0.331223 9.47402 -0.0141954 8.46984 0.000447123H4.25471C3.64918 -0.005255 3.04953 0.119961 2.49659 0.36757C1.94365 0.61518 1.4504 0.979369 1.05041 1.43535C0.65042 1.89132 0.35309 2.42838 0.178659 3.00996C0.00422735 3.59154 -0.04321 4.20398 0.0395761 4.8056C0.788097 10.709 3.47635 16.1941 7.67972 20.3944C11.8831 24.5947 17.362 27.2708 23.2509 28H23.7848C24.8209 28.0015 25.8213 27.6203 26.5949 26.9291C27.0394 26.5303 27.3945 26.0415 27.6367 25.495C27.8789 24.9485 28.0027 24.3566 28 23.7585V19.5311C27.9827 18.5523 27.6273 17.6098 26.9944 16.8645C26.3615 16.1193 25.4903 15.6174 24.5295 15.4446V15.4446ZM25.232 23.8994C25.2318 24.0995 25.189 24.2972 25.1067 24.4794C25.0243 24.6617 24.9042 24.8242 24.7543 24.9563C24.5973 25.0922 24.4137 25.1938 24.2153 25.2544C24.0169 25.3151 23.8081 25.3335 23.6022 25.3085C18.3401 24.6319 13.4525 22.2176 9.7101 18.4465C5.96773 14.6753 3.58367 9.76201 2.93397 4.4815C2.91161 4.27509 2.9312 4.06627 2.99158 3.86767C3.05195 3.66907 3.15185 3.4848 3.28523 3.32601C3.4169 3.1757 3.57897 3.05523 3.76066 2.97262C3.94236 2.89001 4.13952 2.84716 4.33901 2.8469H8.55414C8.88088 2.83961 9.19993 2.94678 9.45638 3.14997C9.71283 3.35315 9.89064 3.63964 9.95919 3.96012C10.0154 4.34529 10.0856 4.72575 10.1699 5.10152C10.3323 5.84434 10.5483 6.57432 10.8163 7.28568L8.8492 8.20162C8.68101 8.27901 8.52973 8.38896 8.40402 8.52515C8.27832 8.66135 8.18068 8.8211 8.11671 8.99524C8.05274 9.16938 8.0237 9.35448 8.03125 9.53991C8.03881 9.72534 8.08281 9.90745 8.16073 10.0758C10.1829 14.4198 13.6646 17.9117 17.996 19.9397C18.3381 20.0807 18.7218 20.0807 19.0639 19.9397C19.2391 19.8769 19.4001 19.7797 19.5376 19.6539C19.6751 19.5282 19.7863 19.3762 19.8647 19.207L20.7359 17.2342C21.4622 17.4947 22.2036 17.7112 22.9558 17.8824C23.3305 17.9669 23.7099 18.0374 24.0939 18.0938C24.4135 18.1625 24.6991 18.3408 24.9017 18.598C25.1043 18.8552 25.2112 19.1752 25.2039 19.5029L25.232 23.8994Z" fill="black" fill-opacity="0.8"/>
</svg>
