<svg width="19" height="19" viewBox="0 0 19 19" fill="none" xmlns="http://www.w3.org/2000/svg">
  <path
    d="M12.4371 10.0622C13.2132 9.45156 13.7797 8.61418 14.0578 7.66657C14.3359 6.71896 14.3117 5.70825 13.9886 4.77503C13.6655 3.84182 13.0595 3.03251 12.2551 2.45971C11.4506 1.88691 10.4876 1.5791 9.5 1.5791C8.51243 1.5791 7.54942 1.88691 6.74494 2.45971C5.94046 3.03251 5.33452 3.84182 5.01142 4.77503C4.68831 5.70825 4.66411 6.71896 4.94218 7.66657C5.22026 8.61418 5.78677 9.45156 6.56291 10.0622C5.23298 10.595 4.07256 11.4788 3.20537 12.6192C2.33818 13.7597 1.79673 15.1141 1.63875 16.538C1.62731 16.642 1.63646 16.7472 1.66568 16.8476C1.6949 16.948 1.74362 17.0417 1.80904 17.1233C1.94118 17.2881 2.13337 17.3937 2.34333 17.4168C2.55329 17.4399 2.76383 17.3786 2.92863 17.2465C3.09343 17.1144 3.19898 16.9222 3.22208 16.7122C3.39592 15.1646 4.13383 13.7354 5.29484 12.6975C6.45584 11.6596 7.95854 11.0859 9.51583 11.0859C11.0731 11.0859 12.5758 11.6596 13.7368 12.6975C14.8978 13.7354 15.6357 15.1646 15.8096 16.7122C15.8311 16.9067 15.9239 17.0864 16.0701 17.2165C16.2163 17.3466 16.4055 17.418 16.6012 17.4168H16.6883C16.8959 17.3929 17.0855 17.288 17.216 17.1249C17.3465 16.9617 17.4073 16.7537 17.385 16.546C17.2263 15.1179 16.6819 13.7601 15.8103 12.6179C14.9386 11.4757 13.7726 10.5922 12.4371 10.0622ZM9.5 9.50012C8.87369 9.50012 8.26145 9.3144 7.74069 8.96644C7.21994 8.61848 6.81406 8.12392 6.57438 7.54528C6.3347 6.96665 6.27199 6.32994 6.39418 5.71567C6.51636 5.10139 6.81796 4.53715 7.26083 4.09428C7.70369 3.65141 8.26794 3.34982 8.88221 3.22763C9.49649 3.10545 10.1332 3.16816 10.7118 3.40783C11.2905 3.64751 11.785 4.05339 12.133 4.57415C12.4809 5.0949 12.6667 5.70715 12.6667 6.33345C12.6667 7.17331 12.333 7.97876 11.7392 8.57262C11.1453 9.16649 10.3399 9.50012 9.5 9.50012Z"
    fill="white" />
</svg>
