<svg width="24" height="24" viewBox="0 0 24 24" fill="none" xmlns="http://www.w3.org/2000/svg">
  <path
    d="M16.4561 12.8512C17.6384 11.9261 18.5013 10.6576 18.9249 9.22201C19.3485 7.78646 19.3116 6.25531 18.8195 4.84156C18.3273 3.42782 17.4043 2.2018 16.1788 1.33405C14.9534 0.466309 13.4864 0 11.9821 0C10.4778 0 9.01085 0.466309 7.78541 1.33405C6.55997 2.2018 5.63695 3.42782 5.14477 4.84156C4.6526 6.25531 4.61573 7.78646 5.03931 9.22201C5.46289 10.6576 6.32585 11.9261 7.50813 12.8512C5.48227 13.6584 3.71464 14.9972 2.39367 16.7249C1.07271 18.4525 0.247932 20.5043 0.00727395 22.6615C-0.0101461 22.819 0.00379671 22.9784 0.0483061 23.1305C0.0928155 23.2827 0.16702 23.4246 0.266682 23.5482C0.46796 23.7979 0.760716 23.9578 1.08055 23.9928C1.40038 24.0277 1.72109 23.9349 1.97212 23.7348C2.22315 23.5346 2.38394 23.2435 2.41913 22.9254C2.68393 20.581 3.80797 18.4158 5.5765 16.8434C7.34503 15.2711 9.63406 14.4019 12.0062 14.4019C14.3784 14.4019 16.6674 15.2711 18.436 16.8434C20.2045 18.4158 21.3285 20.581 21.5933 22.9254C21.6261 23.2201 21.7675 23.4922 21.9902 23.6894C22.2129 23.8865 22.5011 23.9946 22.7993 23.9928H22.9319C23.248 23.9566 23.537 23.7976 23.7357 23.5505C23.9345 23.3034 24.027 22.9882 23.9931 22.6735C23.7513 20.5102 22.9221 18.4531 21.5944 16.7228C20.2666 14.9925 18.4904 13.6541 16.4561 12.8512ZM11.9821 11.9997C11.0281 11.9997 10.0955 11.7183 9.30221 11.1912C8.50896 10.6641 7.89069 9.91484 7.52559 9.03827C7.1605 8.16168 7.06497 7.19712 7.2511 6.26655C7.43722 5.33598 7.89663 4.48119 8.57124 3.81029C9.24585 3.13938 10.1054 2.68249 11.0411 2.49739C11.9768 2.31228 12.9466 2.40728 13.8281 2.77038C14.7095 3.13347 15.4628 3.74834 15.9929 4.53724C16.5229 5.32614 16.8058 6.25364 16.8058 7.20244C16.8058 8.47475 16.2976 9.69494 15.393 10.5946C14.4884 11.4943 13.2614 11.9997 11.9821 11.9997Z"
    fill="black" fill-opacity="0.8" />
</svg>
  