<svg width="8" height="16" viewBox="0 0 8 16" fill="none" xmlns="http://www.w3.org/2000/svg">
  <path
    d="M7.64471 0.420946C7.75733 0.553514 7.84669 0.710979 7.90765 0.884327C7.96862 1.05768 8 1.2435 8 1.43118C8 1.61885 7.96862 1.80468 7.90765 1.97802C7.84669 2.15137 7.75733 2.30884 7.64471 2.4414L2.93089 8.00125L7.64471 13.5611C7.87187 13.829 7.99949 14.1924 7.99949 14.5713C7.99949 14.9502 7.87187 15.3136 7.64471 15.5816C7.41755 15.8495 7.10945 16 6.7882 16C6.46695 16 6.15886 15.8495 5.9317 15.5816L0.35529 9.00431C0.242664 8.87175 0.153311 8.71428 0.0923452 8.54093C0.0313797 8.36758 0 8.18175 0 7.99408C0 7.80641 0.0313797 7.62058 0.0923452 7.44724C0.153311 7.27389 0.242664 7.11642 0.35529 6.98385L5.9317 0.406617C6.39336 -0.137904 7.1709 -0.137904 7.64471 0.420946Z"
    fill="#A9A9A9" fill-opacity="0.73" />
</svg>
  