<svg width="43" height="43" viewBox="0 0 43 43" fill="none" xmlns="http://www.w3.org/2000/svg">
    <path fill-rule="evenodd" clip-rule="evenodd"
        d="M32.1089 31.7137C37.8745 25.7299 37.6976 16.2051 31.7138 10.4395C25.73 4.67384 16.2052 4.85072 10.4396 10.8345C4.67395 16.8184 4.85084 26.3431 10.8347 32.1088C16.8185 37.8744 26.3433 37.6975 32.1089 31.7137Z"
        fill="#525558" />
    <path fill-rule="evenodd" clip-rule="evenodd"
        d="M26.3115 15.2346L21.6401 20.0827L16.7919 15.4113C16.3451 14.9808 15.6351 14.9948 15.2053 15.4408C14.7756 15.8868 14.788 16.5969 15.2348 17.0274L20.083 21.6988L15.4116 26.5469C14.9818 26.993 14.9942 27.703 15.4411 28.1335C15.8879 28.5641 16.5979 28.5501 17.0277 28.1041L21.699 23.2559L26.5472 27.9273C26.994 28.3578 27.704 28.3438 28.1338 27.8978C28.5636 27.4518 28.5512 26.7418 28.1043 26.3112L23.2562 21.6398L27.9275 16.7917C28.3573 16.3456 28.3449 15.6356 27.8981 15.2051C27.4512 14.7745 26.7412 14.7885 26.3115 15.2346Z"
        fill="white" stroke="white" />
</svg>
    